<svg width="28" height="28" viewBox="0 0 28 28" fill="none" xmlns="http://www.w3.org/2000/svg">
<path d="M2 14C2 7.3725 7.3725 2 14 2C20.6275 2 26 7.3725 26 14C26 20.6275 20.6275 26 14 26C7.3725 26 2 20.6275 2 14ZM14.2865 14.872C15.7735 15.238 16.219 15.723 16.219 16.542C16.219 17.393 15.6465 18.037 14.2865 18.1405V14.872ZM13.388 13.0355C12.116 12.717 11.6385 12.1845 11.6385 11.4605C11.6385 10.7365 12.243 10.077 13.3885 9.934L13.388 13.0355ZM14.2865 13.25V9.934C15.3045 10.061 16.02 10.6415 16.1235 11.644H17.7775C17.714 9.839 16.2745 8.646 14.2865 8.4865V7.143H13.388V8.4865C11.384 8.638 9.953 9.8145 9.953 11.596C9.953 13.21 11.0425 14.117 13.062 14.586L13.388 14.6655V18.1325C12.108 17.9975 11.5035 17.3135 11.3605 16.383H9.7145C9.7695 18.2915 11.3685 19.4285 13.388 19.58V20.9155H14.2865V19.58C16.3145 19.4365 17.905 18.3315 17.905 16.383C17.905 14.6895 16.76 13.8305 14.6685 13.3455L14.2865 13.25Z" fill="#009358"/>
</svg>
